#N canvas 743 22 682 545 10;
#X declare -lib mrpeach;
#X obj 10 13 IncomingSignal;
#X obj 38 73 r delta;
#X floatatom 38 137 5 0 0 0 - - -;
#X obj 118 73 r theta;
#X obj 275 27 r low_alpha;
#X obj 426 148 r high_alpha;
#X obj 38 105 log;
#X obj 118 105 log;
#X obj 275 49 log;
#X obj 426 170 log;
#X floatatom 118 137 5 0 0 0 - - -;
#X floatatom 275 71 5 0 0 0 - - -;
#X floatatom 426 192 5 0 0 0 - - -;
#X obj 34 348 r low_beta;
#X obj 115 348 r high_beta;
#X obj 32 441 r low_gamma;
#X obj 117 441 r high_gamma;
#X obj 34 378 log;
#X floatatom 34 408 5 0 0 0 - - -;
#X obj 115 378 log;
#X floatatom 115 408 5 0 0 0 - - -;
#X obj 32 471 log;
#X floatatom 32 501 5 0 0 0 - - -;
#X obj 117 471 log;
#X floatatom 117 501 5 0 0 0 - - -;
#X obj 426 234 autoscale;
#X floatatom 426 255 5 0 0 0 - - -;
#X obj 429 212 hsl 100 15 6 15 0 0 empty empty empty -2 -8 0 10 -262144
-1 -1 4675 1;
#X obj 537 214 bng 15 250 50 0 empty empty empty 17 7 0 10 -262144
-1 -1;
#X obj 426 301 phasor~;
#X obj 545 334 metro;
#X obj 545 308 tgl 15 0 empty empty empty 17 7 0 10 -262144 -1 -1 0
1;
#X obj 545 366 snapshot~;
#X floatatom 545 391 5 0 0 0 - - -;
#X obj 331 439 output~;
#X obj 331 407 *~;
#X obj 275 277 osc~;
#X obj 275 302 *~ 0.3;
#X obj 321 277 osc~;
#X obj 321 302 *~ 0.5;
#X obj 365 277 osc~;
#X obj 365 302 *~ 0.2;
#X obj 292 336 +~;
#X obj 292 358 +~;
#X obj 278 92 hsl 100 15 6 15 0 0 empty empty empty -2 -8 0 10 -262144
-1 -1 3707 1;
#X obj 388 92 bng 15 250 50 0 empty empty empty 17 7 0 10 -262144 -1
-1;
#X obj 275 137 pack 1 1;
#X obj 275 158 line;
#X obj 275 116 autoscale 48 72;
#X obj 275 184 mtof;
#X obj 275 206 pack 1 150;
#X obj 275 227 line~;
#X obj 321 256 *~ 2;
#X obj 365 257 *~ 4;
#X floatatom 208 165 5 0 0 0 - - -;
#X obj 426 277 * 5;
#X connect 1 0 6 0;
#X connect 3 0 7 0;
#X connect 4 0 8 0;
#X connect 5 0 9 0;
#X connect 6 0 2 0;
#X connect 7 0 10 0;
#X connect 8 0 11 0;
#X connect 9 0 12 0;
#X connect 11 0 44 0;
#X connect 12 0 27 0;
#X connect 13 0 17 0;
#X connect 14 0 19 0;
#X connect 15 0 21 0;
#X connect 16 0 23 0;
#X connect 17 0 18 0;
#X connect 19 0 20 0;
#X connect 21 0 22 0;
#X connect 23 0 24 0;
#X connect 25 0 26 0;
#X connect 26 0 55 0;
#X connect 27 0 25 0;
#X connect 28 0 25 3;
#X connect 29 0 32 0;
#X connect 29 0 35 1;
#X connect 30 0 32 0;
#X connect 31 0 30 0;
#X connect 32 0 33 0;
#X connect 35 0 34 0;
#X connect 35 0 34 1;
#X connect 36 0 37 0;
#X connect 37 0 42 0;
#X connect 38 0 39 0;
#X connect 39 0 42 1;
#X connect 40 0 41 0;
#X connect 41 0 43 1;
#X connect 42 0 43 0;
#X connect 43 0 35 0;
#X connect 44 0 48 0;
#X connect 45 0 48 3;
#X connect 46 0 47 0;
#X connect 46 0 54 0;
#X connect 47 0 49 0;
#X connect 48 0 46 0;
#X connect 49 0 50 0;
#X connect 50 0 51 0;
#X connect 51 0 36 0;
#X connect 51 0 52 0;
#X connect 51 0 53 0;
#X connect 52 0 38 0;
#X connect 53 0 40 0;
#X connect 55 0 29 0;
